# xmcd CD database file
#
# Track frame offsets:
#	150
#	13834
#	27215
#	41673
#	53529
#	67831
#	81839
#	94189
#	108610
#	122609
#	137899
#	151831
#	164110
#	178067
#	192618
#	208286
#	221415
#	233954
#	249341
#
# Disc length: 3522 seconds
#
# Revision: 1
# Processed by: cddbd v1.5.1PL2 Copyright (c) Steve Scherf et al.
# Submitted via: CDex 1.51
#
DISCID=100dc013
DTITLE=Grandes Voces del Jazz - Grandes Voces del Jazz
DYEAR=2005
DGENRE=Jazz
TTITLE0=Get your kicks on Route 66 - Nat King Cole
TTITLE1=All or Nothing - Frank Sinatra
TTITLE2=Candy - Johnny Mercer
TTITLE3=Paper Doll - The Mills Brothers
TTITLE4=Bum and Coca Cola - The Andrew Sisters
TTITLE5=Don´t fence me in - Bing Crosby
TTITLE6=There are such Things - Frank Sinatra
TTITLE7=Why don`t you do right - Peggy Lee
TTITLE8=Into each life some rain must fall - Ella Fitzgerald
TTITLE9=You always hurt the one you love - The Mills Brothers
TTITLE10=On the Atcheson. Topeka and Santa Fe - Johnny Mercer
TTITLE11=Mc Namara `s Band - Bing Crosby
TTITLE12=White Cristmas - Bing Crosby
TTITLE13=Sentimental Journey - Doris Day
TTITLE14=Prisoner of Love - Perry Como
TTITLE15=Rockabye your baby with a Dixie Melody - Al Jonson
TTITLE16=The Gipsy - The Ink Spots
TTITLE17=Yours - Vera Lynn
TTITLE18=He wears a pair of Silver Wings - Dinag Shore
EXTD=YEAR: 2005
EXTT0=
EXTT1=
EXTT2=
EXTT3=
EXTT4=
EXTT5=
EXTT6=
EXTT7=
EXTT8=
EXTT9=
EXTT10=
EXTT11=
EXTT12=
EXTT13=
EXTT14=
EXTT15=
EXTT16=
EXTT17=
EXTT18=
PLAYORDER=
